<?xml version="1.0" encoding="UTF-8"?>
<svg id="Layer_2" data-name="Layer 2" xmlns="http://www.w3.org/2000/svg" xmlns:xlink="http://www.w3.org/1999/xlink" viewBox="0 0 551 592.55">
  <defs>
    <style>
      .cls-1 {
        clip-path: url(#clippath);
      }

      .cls-2 {
        fill: none;
      }

      .cls-2, .cls-3, .cls-4 {
        stroke-width: 0px;
      }

      .cls-5 {
        clip-path: url(#clippath-1);
      }

      .cls-3 {
        fill: #1a1a1a;
      }

      .cls-4 {
        fill: #231f20;
      }
    </style>
    <clipPath id="clippath">
      <rect class="cls-2" y="274.6" width="248.63" height="244"/>
    </clipPath>
    <clipPath id="clippath-1">
      <rect class="cls-2" x="215.3" y="267.93" width="335.7" height="324.61"/>
    </clipPath>
  </defs>
  <g id="Layer_1-2" data-name="Layer 1">
    <g>
      <path class="cls-3" d="M149.92,156.33c-2.18-1.06-4.28-2.17-6.3-3.29,5.92-28.02,13.19-62.77,19.36-93.15.69-3.35,1.41-6.56,2.19-9.61,5.08-19.97,12.12-33.44,19.77-41.38,9.41-9.78,19.71-11.14,28.35-5.83,3.63,2.22,6.95,5.61,9.8,10.06,2.01,3.14,4.5,6.02,7.26,8.64,5.03,4.78,10.73,8.48,16.81,11.1,15.1,6.54,32.48,6.44,47.51-.34,5.77-2.61,11.19-6.2,16.02-10.76,2.76-2.61,5.23-5.49,7.26-8.64,3.19-4.95,6.97-8.61,11.09-10.79,7.76-4.09,16.69-2.94,25.07,4.64,8.07,7.3,15.62,20.55,21.1,40.81,1.03,3.78,1.98,7.82,2.84,12.1,6.38,31.43,13.93,67.53,19.97,96.02-.28.14-.57.28-.85.42-32.74,16.16-76.64,25.07-123.62,25.07s-90.89-8.91-123.64-25.07Z"/>
      <path class="cls-3" d="M489.61,234.26c0,34.32-98.08,62.14-219.09,62.14s-219.08-27.82-219.08-62.14c0-19.63,32.12-37.15,82.27-48.54.46.23.91.46,1.38.69,37.28,18.41,86.44,28.54,138.47,28.54s100.71-10.02,137.9-28.27c47.78,11.4,78.15,28.48,78.15,47.58Z"/>
      <g class="cls-1">
        <path class="cls-3" d="M248.43,483.19c-2.43,3.6-4.79,7.22-7.07,10.91-5.06,8.09-9.55,15.91-13.52,23.37l-163.72-82.8,56.1-23.38L0,343.36l62.81-68.18c12.19,7.42,28.33,14.01,48.09,19.62.18.05.35.09.52.14,14.55,77.6,82.47,145.15,137.02,188.25Z"/>
      </g>
      <g class="cls-5">
        <path class="cls-3" d="M430.16,418.97l63.45,13.03s-172.98,22.05-277.19,160.34c0,0,33-152.72,205.95-235.87,5.19-2.49,8.45-7.78,8.45-13.53v-48.35c21.56-6.16,38.77-13.49,51.17-21.81,2.3-1.54,4.41-3.1,6.32-4.67l62.73,75.25-120.89,75.6Z"/>
      </g>
      <path class="cls-4" d="M255.52,324.32c-1.96,17.88-29.49,29.5-61.47,25.96-31.99-3.53-56.32-20.89-54.33-38.77.34-3.18,1.52-6.19,3.42-8.93,32.75,6.4,70.64,10.2,110.48,11.06,1.61,3.46,2.3,7.07,1.9,10.68Z"/>
      <path class="cls-4" d="M357.02,350.27c-31.99,3.55-59.53-8.08-61.49-25.96-.4-3.72.32-7.44,2.05-10.99,39.67-1.35,77.07-5.66,109.03-12.54,2.65,3.22,4.32,6.82,4.75,10.73,1.96,17.88-22.36,35.23-54.33,38.77Z"/>
    </g>
  </g>
</svg>