<svg width="551" height="593" viewBox="0 0 551 593" fill="none" xmlns="http://www.w3.org/2000/svg">
<path d="M149.92 156.33C147.74 155.27 145.64 154.16 143.62 153.04C149.54 125.02 156.81 90.2699 162.98 59.8899C163.67 56.5399 164.39 53.3299 165.17 50.2799C170.25 30.3099 177.29 16.8399 184.94 8.8999C194.35 -0.880102 204.65 -2.2401 213.29 3.0699C216.92 5.2899 220.24 8.6799 223.09 13.1299C225.1 16.2699 227.59 19.1499 230.35 21.7699C235.38 26.5499 241.08 30.2499 247.16 32.8699C262.26 39.4099 279.64 39.3099 294.67 32.5299C300.44 29.9199 305.86 26.3299 310.69 21.7699C313.45 19.1599 315.92 16.2799 317.95 13.1299C321.14 8.1799 324.92 4.5199 329.04 2.3399C336.8 -1.7501 345.73 -0.600102 354.11 6.9799C362.18 14.2799 369.73 27.5299 375.21 47.7899C376.24 51.5699 377.19 55.6099 378.05 59.8899C384.43 91.3199 391.98 127.42 398.02 155.91C397.74 156.05 397.45 156.19 397.17 156.33C364.43 172.49 320.53 181.4 273.55 181.4C226.57 181.4 182.66 172.49 149.91 156.33H149.92Z" fill="white" fill-opacity="0.6"/>
<path d="M489.61 234.26C489.61 268.58 391.53 296.4 270.52 296.4C149.51 296.4 51.4399 268.58 51.4399 234.26C51.4399 214.63 83.5599 197.11 133.71 185.72C134.17 185.95 134.62 186.18 135.09 186.41C172.37 204.82 221.53 214.95 273.56 214.95C325.59 214.95 374.27 204.93 411.46 186.68C459.24 198.08 489.61 215.16 489.61 234.26Z" fill="white" fill-opacity="0.6"/>
<mask id="mask0_61_3" style="mask-type:luminance" maskUnits="userSpaceOnUse" x="0" y="274" width="249" height="245">
<path d="M248.63 274.6H0V518.6H248.63V274.6Z" fill="white"/>
</mask>
<g mask="url(#mask0_61_3)">
<path d="M248.43 483.19C246 486.79 243.64 490.41 241.36 494.1C236.3 502.19 231.81 510.01 227.84 517.47L64.12 434.67L120.22 411.29L0 343.36L62.81 275.18C75 282.6 91.14 289.19 110.9 294.8C111.08 294.85 111.25 294.89 111.42 294.94C125.97 372.54 193.89 440.09 248.44 483.19H248.43Z" fill="white" fill-opacity="0.6"/>
</g>
<mask id="mask1_61_3" style="mask-type:luminance" maskUnits="userSpaceOnUse" x="215" y="267" width="336" height="326">
<path d="M551 267.93H215.3V592.54H551V267.93Z" fill="white"/>
</mask>
<g mask="url(#mask1_61_3)">
<path d="M430.16 418.97L493.61 432C493.61 432 320.63 454.05 216.42 592.34C216.42 592.34 249.42 439.62 422.37 356.47C427.56 353.98 430.82 348.69 430.82 342.94V294.59C452.38 288.43 469.59 281.1 481.99 272.78C484.29 271.24 486.4 269.68 488.31 268.11L551.04 343.36L430.15 418.96L430.16 418.97Z" fill="white" fill-opacity="0.6"/>
</g>
<path d="M255.52 324.32C253.56 342.2 226.03 353.82 194.05 350.28C162.06 346.75 137.73 329.39 139.72 311.51C140.06 308.33 141.24 305.32 143.14 302.58C175.89 308.98 213.78 312.78 253.62 313.64C255.23 317.1 255.92 320.71 255.52 324.32Z" fill="#ECC30B"/>
<path d="M357.02 350.27C325.03 353.82 297.49 342.19 295.53 324.31C295.13 320.59 295.85 316.87 297.58 313.32C337.25 311.97 374.65 307.66 406.61 300.78C409.26 304 410.93 307.6 411.36 311.51C413.32 329.39 389 346.74 357.03 350.28L357.02 350.27Z" fill="#ECC30B"/>
</svg>
